{"glyphs":{":":{"x_min":0,"x_max":212,"ha":212,"o":"m 22 55 q 22 68 27 80 q 32 91 40 100 q 49 108 60 113 q 72 118 85 118 q 98 118 109 113 q 120 108 129 100 q 138 91 142 80 q 148 68 148 55 q 148 42 142 30 q 138 19 129 10 q 120 2 109 -3 q 98 -8 85 -8 q 72 -8 60 -3 q 49 2 40 10 q 32 19 27 30 q 22 42 22 55 z m 72 430 q 72 443 77 454 q 82 466 90 474 q 99 483 110 488 q 122 493 135 493 q 148 493 159 488 q 170 483 179 474 q 188 466 192 454 q 198 443 198 430 q 198 416 192 405 q 188 394 179 386 q 170 377 159 372 q 148 368 135 368 q 122 368 110 372 q 99 377 90 386 q 82 394 77 405 q 72 416 72 430 z"},"$":{"x_min":0,"x_max":580,"ha":580,"o":"m 220 -6 q 160 0 114 24 q 67 48 36 86 l 66 124 q 76 137 90 137 q 100 137 110 128 q 121 118 137 106 q 154 94 176 82 q 200 70 234 66 l 285 336 q 254 346 224 358 q 194 370 171 389 q 148 408 134 435 q 120 463 120 504 q 120 546 136 584 q 152 622 184 652 q 214 682 259 702 q 303 720 358 722 l 372 795 q 374 804 382 812 q 390 819 400 819 l 432 819 l 412 720 q 464 714 500 694 q 536 674 561 644 l 537 612 q 532 605 526 602 q 520 598 513 598 q 506 598 497 604 q 488 611 474 620 q 460 628 442 636 q 424 644 399 648 l 352 402 q 384 392 416 380 q 448 367 472 349 q 497 330 512 304 q 528 276 528 237 q 528 190 510 147 q 493 104 460 71 q 427 38 380 17 q 333 -4 274 -8 l 258 -96 q 256 -106 248 -112 q 241 -120 230 -120 l 198 -120 z m 444 216 q 444 238 435 254 q 426 270 412 282 q 398 294 378 303 q 358 312 336 320 l 288 66 q 326 69 354 82 q 383 94 403 114 q 423 134 433 160 q 444 186 444 216 z m 202 524 q 202 502 210 487 q 218 471 231 459 q 244 446 262 437 q 280 428 301 420 l 344 649 q 308 646 282 635 q 255 624 237 606 q 220 590 211 568 q 202 547 202 524 z"},"?":{"x_min":0,"x_max":368,"ha":368,"o":"m 66 652 q 82 666 101 679 q 120 692 142 702 q 164 712 188 718 q 213 724 241 724 q 276 724 304 713 q 332 702 352 684 q 372 666 383 640 q 394 615 394 586 q 394 544 382 514 q 370 484 352 463 q 334 441 312 425 q 290 410 271 395 q 251 380 236 364 q 220 348 216 326 l 197 250 l 138 250 l 143 332 q 144 356 158 375 q 171 394 190 410 q 209 426 231 442 q 252 457 271 475 q 289 493 301 516 q 314 538 314 569 q 314 608 290 630 q 266 653 226 653 q 198 653 177 646 q 156 638 142 629 q 127 620 117 612 q 108 605 101 605 q 89 605 84 616 z m 92 55 q 92 68 96 80 q 101 91 109 100 q 118 108 129 113 q 140 118 154 118 q 166 118 178 113 q 190 108 198 100 q 206 91 211 80 q 216 68 216 55 q 216 42 211 30 q 206 19 198 10 q 190 2 178 -3 q 166 -8 154 -8 q 140 -8 129 -3 q 118 2 109 10 q 101 19 96 30 q 92 42 92 55 z"},"<":{"x_min":0,"x_max":534,"ha":534,"o":"m 84 355 l 495 556 l 487 492 q 486 484 481 477 q 476 471 466 466 l 228 352 q 217 346 205 343 q 194 339 180 336 q 192 334 203 330 q 214 326 224 320 l 434 207 q 442 203 446 197 q 450 192 450 186 q 450 186 449 179 q 448 172 447 163 q 446 153 444 141 q 442 129 441 117 l 80 318 z"},"'":{"x_min":0,"x_max":213,"ha":213,"o":"m 202 716 l 184 571 l 166 494 q 163 478 155 470 q 148 461 133 461 q 120 461 114 470 q 109 478 109 494 l 109 571 l 128 716 z"},"=":{"x_min":0,"x_max":580,"ha":580,"o":"m 78 286 l 508 286 l 500 221 l 70 221 z m 100 453 l 528 453 l 520 388 l 92 388 z"},"a":{"x_min":0,"x_max":506,"ha":506,"o":"m 408 0 l 362 0 q 345 0 339 9 q 332 18 332 31 l 342 134 q 324 102 303 76 q 282 50 259 31 q 236 13 210 3 q 184 -7 157 -7 q 127 -7 102 5 q 78 16 61 39 q 44 62 34 95 q 24 128 24 172 q 24 216 36 259 q 47 302 68 340 q 88 378 118 410 q 146 442 182 465 q 218 488 259 501 q 300 514 345 514 q 378 514 408 508 q 439 503 469 490 z m 190 67 q 215 67 238 82 q 262 98 283 124 q 304 152 322 189 q 340 226 354 270 l 376 444 q 365 447 354 448 q 344 448 333 448 q 303 448 275 439 q 247 429 222 412 q 198 394 178 370 q 158 346 144 316 q 130 288 122 255 q 114 222 114 188 q 114 67 190 67 z"},"L":{"x_min":0,"x_max":474,"ha":474,"o":"m 152 79 l 435 79 l 426 0 l 48 0 l 137 716 l 230 716 z"},"3":{"x_min":0,"x_max":580,"ha":580,"o":"m 368 724 q 410 724 445 712 q 480 700 504 679 q 529 658 542 628 q 556 598 556 562 q 556 522 546 492 q 535 462 516 439 q 496 416 469 402 q 442 387 408 378 q 470 360 500 322 q 531 283 531 227 q 531 173 510 130 q 488 86 452 56 q 415 25 367 8 q 318 -8 266 -8 q 216 -8 178 4 q 140 15 114 38 q 88 61 71 96 q 54 131 46 178 l 86 194 q 98 198 106 198 q 116 198 123 194 q 130 190 132 182 q 140 152 151 131 q 162 109 178 94 q 195 80 218 73 q 241 66 274 66 q 314 66 346 80 q 378 94 400 116 q 422 138 434 167 q 445 196 445 225 q 445 249 438 269 q 430 290 410 304 q 391 319 358 328 q 325 336 274 336 l 282 398 q 377 400 424 438 q 470 477 470 544 q 470 570 462 590 q 453 610 438 624 q 422 637 401 644 q 380 650 355 650 q 298 650 259 620 q 220 591 201 540 q 196 526 187 520 q 178 514 166 514 q 164 514 161 514 q 158 514 156 515 l 112 522 q 124 572 149 609 q 174 646 207 672 q 240 698 282 710 q 322 724 368 724 z"},";":{"x_min":0,"x_max":212,"ha":212,"o":"m 23 62 q 23 85 39 102 q 56 118 82 118 q 98 118 109 112 q 120 107 128 97 q 136 88 140 75 q 144 62 144 47 q 144 24 138 0 q 132 -24 119 -48 q 107 -72 90 -94 q 72 -116 50 -136 l 34 -121 q 28 -115 28 -107 q 28 -101 36 -92 q 44 -82 54 -69 q 64 -56 74 -38 q 84 -21 88 0 l 82 0 q 56 0 39 17 q 23 34 23 62 z m 76 430 q 76 443 80 454 q 85 466 94 474 q 102 483 113 488 q 124 493 138 493 q 151 493 162 488 q 174 483 182 474 q 190 466 196 454 q 200 443 200 430 q 200 416 196 405 q 190 394 182 386 q 174 377 162 372 q 151 368 138 368 q 124 368 113 372 q 102 377 94 386 q 85 394 80 405 q 76 416 76 430 z"},"J":{"x_min":0,"x_max":408,"ha":408,"o":"m 328 238 q 314 118 254 55 q 194 -8 96 -8 q 68 -8 45 -4 q 22 -1 -2 6 l 4 60 q 6 68 10 74 q 15 79 25 79 q 30 79 36 78 q 43 76 51 75 q 60 73 70 72 q 81 70 95 70 q 121 70 144 79 q 167 88 186 107 q 204 126 217 158 q 230 190 235 236 l 294 716 l 387 716 z"},"V":{"x_min":0,"x_max":630,"ha":630,"o":"m 62 716 l 136 716 q 149 716 156 710 q 163 704 166 694 l 285 182 q 289 166 293 147 q 296 128 299 106 q 306 128 314 146 q 322 166 330 182 l 574 694 q 578 702 587 709 q 596 716 608 716 l 684 716 l 327 0 l 242 0 z"},"\"":{"x_min":0,"x_max":368,"ha":368,"o":"m 202 716 l 184 571 l 166 494 q 163 478 155 470 q 148 461 133 461 q 120 461 114 470 q 109 478 109 494 l 109 571 l 128 716 z m 358 716 l 340 571 l 322 494 q 319 478 311 470 q 304 461 289 461 q 276 461 270 470 q 265 478 265 494 l 265 571 l 284 716 z"},"7":{"x_min":0,"x_max":580,"ha":580,"o":"m 600 716 l 596 682 q 595 670 592 659 q 588 648 584 640 l 201 22 q 196 13 186 6 q 176 0 164 0 l 94 0 l 470 595 q 478 607 485 617 q 493 628 502 637 l 126 637 q 118 637 112 642 q 107 648 107 656 l 107 658 l 114 716 z"},"S":{"x_min":0,"x_max":488,"ha":488,"o":"m 463 606 q 458 598 452 595 q 448 591 440 591 q 432 591 422 600 q 413 608 398 619 q 384 629 362 638 q 342 646 310 646 q 278 646 253 636 q 228 626 211 609 q 194 592 184 569 q 176 546 176 520 q 176 494 188 476 q 200 458 219 445 q 238 432 264 423 q 289 413 315 403 q 341 392 366 380 q 392 368 411 349 q 430 330 442 304 q 454 278 454 242 q 454 190 437 145 q 420 100 387 66 q 354 32 308 12 q 261 -8 203 -8 q 139 -8 89 17 q 38 42 6 86 l 39 130 q 43 136 49 139 q 55 142 62 142 q 72 142 82 131 q 94 120 110 106 q 128 92 152 81 q 178 70 215 70 q 250 70 277 81 q 305 92 324 112 q 344 131 354 158 q 364 186 364 218 q 364 246 352 264 q 340 282 321 295 q 302 308 277 317 q 252 326 226 336 q 200 345 175 357 q 150 369 130 388 q 111 406 99 433 q 87 460 87 500 q 87 544 103 584 q 119 624 149 656 q 179 686 222 705 q 265 724 319 724 q 374 724 418 702 q 462 682 490 645 z"},"}":{"x_min":0,"x_max":276,"ha":276,"o":"m 214 396 q 214 370 228 354 q 242 338 268 338 l 262 286 q 224 286 206 256 q 188 226 188 164 q 188 153 189 140 q 190 126 190 113 q 191 99 192 86 q 192 72 192 62 q 192 13 181 -25 q 170 -63 148 -89 q 126 -116 92 -129 q 60 -143 16 -143 l -8 -143 l -4 -104 q -3 -100 0 -96 q 2 -93 5 -91 q 8 -88 12 -88 q 16 -86 18 -86 l 27 -86 q 46 -86 63 -79 q 80 -72 91 -54 q 103 -37 110 -9 q 116 18 116 59 q 116 68 116 84 q 116 98 116 114 q 116 130 116 145 q 116 160 116 170 q 116 208 124 234 q 132 260 145 276 q 158 292 173 300 q 188 308 200 312 q 174 320 158 343 q 142 366 142 398 q 142 428 149 456 q 156 484 165 513 q 174 542 182 571 q 189 600 189 632 q 189 667 172 688 q 156 710 125 710 l 116 710 q 110 710 105 713 q 99 717 99 726 q 99 727 100 730 q 100 734 100 738 q 100 742 101 744 q 102 748 102 748 l 104 766 l 128 766 q 163 766 188 756 q 214 746 231 729 q 248 711 256 686 q 264 662 264 633 q 264 600 256 570 q 248 540 239 511 q 230 482 222 454 q 214 426 214 396 z"},"Z":{"x_min":0,"x_max":574,"ha":574,"o":"m 598 716 l 594 686 q 592 680 590 674 q 586 668 582 662 l 144 76 l 513 76 l 503 0 l 8 0 l 12 30 q 13 36 16 42 q 18 48 23 54 l 461 640 l 104 640 l 114 716 z"},"x":{"x_min":0,"x_max":470,"ha":470,"o":"m 180 272 l 59 506 l 138 506 q 148 506 153 504 q 157 501 160 494 l 246 320 q 248 326 251 330 q 254 336 258 341 l 372 492 q 378 500 382 503 q 386 506 393 506 l 474 506 l 292 272 l 428 0 l 348 0 q 338 0 332 5 q 327 10 324 18 l 228 220 q 223 209 218 201 l 80 17 q 74 10 68 5 q 62 0 54 0 l -24 0 z"},")":{"x_min":0,"x_max":276,"ha":276,"o":"m 156 408 q 156 445 153 485 q 150 525 142 565 q 135 605 125 644 q 114 682 101 716 q 98 723 98 728 q 98 737 102 742 q 107 747 113 751 l 154 774 q 174 731 189 686 q 204 640 214 594 q 223 548 228 503 q 232 458 232 416 q 232 346 224 280 q 216 214 195 146 q 174 78 137 7 q 100 -64 41 -146 l 6 -122 q 2 -120 -1 -116 q -4 -112 -4 -106 q -4 -98 3 -86 q 40 -30 68 28 q 97 86 116 148 q 136 209 146 274 q 156 338 156 408 z"},"&":{"x_min":0,"x_max":648,"ha":648,"o":"m 362 724 q 397 724 426 712 q 454 702 474 682 q 495 662 506 636 q 518 610 518 578 q 518 577 518 576 q 518 574 517 572 l 466 562 q 464 562 462 561 q 460 561 458 561 q 444 561 440 578 q 438 592 432 606 q 426 620 415 631 q 405 642 390 650 q 375 656 354 656 q 329 656 308 647 q 288 638 273 621 q 258 604 250 581 q 242 558 242 532 q 242 504 254 474 q 266 444 291 412 l 452 208 q 472 241 486 276 q 500 312 506 347 q 508 356 513 362 q 518 367 527 367 l 586 367 q 578 310 556 254 q 533 198 498 150 l 616 0 l 542 0 q 532 0 524 1 q 516 2 510 6 q 504 8 499 14 q 494 18 488 26 l 440 86 q 393 43 336 18 q 278 -8 214 -8 q 172 -8 138 4 q 104 16 80 39 q 56 62 42 94 q 28 127 28 168 q 28 207 42 242 q 55 277 78 306 q 102 336 133 358 q 164 382 200 398 q 180 430 171 462 q 162 494 162 526 q 162 567 176 603 q 190 640 217 666 q 243 692 280 708 q 317 724 362 724 z m 118 178 q 118 150 126 129 q 135 107 150 92 q 166 77 186 69 q 208 62 232 62 q 280 62 322 83 q 364 104 398 140 l 232 352 q 174 321 146 276 q 118 232 118 178 z"},"_":{"x_min":0,"x_max":363,"ha":363,"o":"m 322 -84 l 315 -142 l -48 -142 l -40 -84 z"},"v":{"x_min":0,"x_max":477,"ha":477,"o":"m 38 506 l 110 506 q 120 506 126 501 q 132 496 134 488 l 209 162 q 213 144 215 125 q 216 106 218 88 q 223 106 229 125 q 235 143 244 162 l 401 488 q 405 496 412 501 q 419 506 428 506 l 497 506 l 243 0 l 168 0 z"},"O":{"x_min":0,"x_max":732,"ha":732,"o":"m 711 409 q 711 348 698 294 q 685 239 661 193 q 638 146 604 110 q 570 72 528 46 q 486 20 438 6 q 389 -8 336 -8 q 270 -8 217 16 q 164 40 127 81 q 90 123 70 180 q 50 238 50 306 q 50 398 78 475 q 107 552 157 607 q 208 662 276 694 q 345 724 426 724 q 492 724 544 701 q 597 677 634 635 q 672 593 691 535 q 711 478 711 409 z m 615 407 q 615 462 601 506 q 587 550 561 581 q 536 612 498 629 q 461 646 414 646 q 356 646 306 622 q 256 598 221 554 q 186 510 166 448 q 146 386 146 309 q 146 254 160 210 q 174 166 199 136 q 225 104 262 88 q 299 71 346 71 q 406 71 455 94 q 504 118 540 162 q 576 206 595 268 q 615 330 615 407 z"},"(":{"x_min":0,"x_max":276,"ha":276,"o":"m 137 220 q 137 184 140 144 q 144 104 151 64 q 158 24 168 -14 q 178 -53 192 -86 q 195 -94 195 -100 q 195 -108 190 -114 q 186 -119 180 -122 l 140 -146 q 118 -102 104 -57 q 89 -11 80 35 q 70 81 66 126 q 61 171 61 212 q 61 282 69 349 q 77 415 98 482 q 120 550 156 622 q 194 694 252 774 l 288 751 q 292 748 294 744 q 298 740 298 734 q 298 726 290 716 q 254 658 225 602 q 196 545 177 485 q 158 425 147 360 q 137 294 137 220 z"},"C":{"x_min":0,"x_max":617,"ha":617,"o":"m 340 72 q 372 72 398 78 q 424 84 443 92 q 462 100 476 109 q 490 119 500 127 q 510 135 518 140 q 524 146 530 146 q 534 146 538 144 q 540 142 542 140 l 575 100 q 528 48 467 20 q 406 -8 324 -8 q 260 -8 209 15 q 158 38 123 79 q 88 120 69 178 q 50 234 50 303 q 50 396 79 474 q 108 552 159 607 q 210 663 278 694 q 346 724 426 724 q 464 724 494 718 q 526 712 551 699 q 576 686 597 669 q 618 652 636 630 l 604 591 q 600 586 595 583 q 590 580 582 580 q 574 580 564 590 q 554 600 536 611 q 519 623 492 633 q 464 643 421 643 q 363 643 312 620 q 262 596 225 553 q 188 510 167 448 q 146 387 146 310 q 146 255 160 211 q 174 167 200 136 q 226 106 262 89 q 297 72 340 72 z"},"W":{"x_min":0,"x_max":941,"ha":941,"o":"m 64 716 l 138 716 q 150 716 158 710 q 165 704 166 694 l 244 187 q 244 180 245 170 q 246 160 247 150 q 248 140 248 128 q 253 144 258 159 q 264 174 269 187 l 484 694 q 488 702 496 710 q 506 716 518 716 l 539 716 q 552 716 559 710 q 566 704 568 694 l 658 187 q 660 174 662 160 q 664 145 664 129 q 670 145 674 160 q 678 174 683 187 l 884 694 q 888 702 898 710 q 908 716 920 716 l 992 716 l 699 0 l 614 0 l 518 552 q 516 560 515 569 q 514 578 512 588 q 509 578 506 569 q 502 560 499 552 l 266 0 l 182 0 z"},"A":{"x_min":0,"x_max":618,"ha":618,"o":"m 590 0 l 518 0 q 506 0 498 6 q 492 12 489 22 l 450 198 l 158 198 l 76 22 q 72 14 62 7 q 53 0 42 0 l -32 0 l 320 716 l 414 716 z m 190 266 l 435 266 l 369 562 q 366 575 362 592 q 359 608 356 627 q 350 608 342 591 q 335 574 328 562 z"},"f":{"x_min":0,"x_max":304,"ha":304,"o":"m 188 432 l 137 16 l 114 -87 q 106 -124 68 -124 l 33 -124 l 100 431 l 50 438 q 42 440 37 444 q 32 449 32 458 l 36 496 l 108 496 l 114 546 q 120 589 136 623 q 152 656 177 680 q 202 703 234 715 q 266 727 302 727 q 333 727 358 717 l 350 671 q 349 664 343 662 q 338 660 328 660 q 324 660 319 661 q 314 661 308 661 q 286 661 268 655 q 250 648 236 634 q 222 620 212 598 q 202 576 198 543 l 192 496 l 319 496 l 310 432 z"},"Q":{"x_min":0,"x_max":732,"ha":732,"o":"m 711 409 q 711 348 698 294 q 686 240 662 194 q 638 148 605 111 q 572 74 531 48 l 676 -148 l 600 -148 q 583 -148 570 -144 q 556 -139 548 -126 l 449 10 q 422 2 394 -3 q 366 -8 336 -8 q 270 -8 217 16 q 164 40 127 81 q 90 123 70 180 q 50 238 50 306 q 50 398 78 475 q 107 552 157 607 q 208 662 276 694 q 345 724 426 724 q 492 724 544 701 q 597 677 634 635 q 672 593 691 535 q 711 478 711 409 z m 615 407 q 615 462 601 506 q 587 550 561 581 q 536 612 498 629 q 461 646 414 646 q 356 646 306 622 q 256 598 221 554 q 186 510 166 448 q 146 386 146 309 q 146 254 160 210 q 174 166 199 136 q 225 104 262 88 q 299 71 346 71 q 406 71 455 94 q 504 118 540 162 q 576 206 595 268 q 615 330 615 407 z"},"w":{"x_min":0,"x_max":710,"ha":710,"o":"m 41 506 l 108 506 q 118 506 124 502 q 130 496 131 488 l 178 162 q 180 144 180 128 q 180 112 181 96 q 187 112 193 128 q 200 144 206 162 l 345 490 q 348 498 355 502 q 362 508 370 508 l 407 508 q 417 508 422 502 q 428 498 429 490 l 486 162 q 488 144 490 128 q 492 112 494 95 q 498 111 503 128 q 508 144 515 162 l 643 488 q 646 496 653 501 q 660 506 669 506 l 733 506 l 520 0 l 453 0 q 442 0 438 17 l 377 360 q 376 368 374 377 q 374 385 372 393 q 370 384 368 376 q 365 368 362 360 l 215 17 q 208 0 195 0 l 130 0 z"},"-":{"x_min":0,"x_max":320,"ha":320,"o":"m 58 336 l 286 336 l 276 263 l 48 263 z"},"E":{"x_min":0,"x_max":534,"ha":534,"o":"m 535 640 l 222 640 l 192 398 l 446 398 l 436 325 l 182 325 l 152 76 l 466 76 l 457 0 l 48 0 l 137 716 l 544 716 z"},"s":{"x_min":0,"x_max":390,"ha":390,"o":"m 362 426 q 358 420 354 417 q 350 414 344 414 q 337 414 329 420 q 320 425 309 432 q 297 438 280 444 q 263 450 239 450 q 216 450 198 444 q 180 438 166 426 q 152 416 145 401 q 138 386 138 370 q 138 346 154 332 q 169 318 192 308 q 216 298 243 288 q 270 278 294 264 q 318 250 333 227 q 348 204 348 168 q 348 134 335 102 q 321 70 295 45 q 270 21 233 6 q 197 -8 152 -8 q 104 -8 66 9 q 29 26 6 54 l 28 88 q 32 94 37 98 q 42 101 51 101 q 59 101 67 94 q 75 87 87 78 q 99 70 117 62 q 136 56 164 56 q 188 56 208 63 q 228 70 241 83 q 255 96 262 112 q 270 129 270 148 q 270 174 254 188 q 238 204 215 214 q 192 224 164 232 q 138 241 114 255 q 90 268 75 290 q 60 312 60 349 q 60 381 72 411 q 85 440 109 464 q 133 486 167 500 q 202 514 244 514 q 290 514 325 499 q 360 484 384 458 z"},">":{"x_min":0,"x_max":534,"ha":534,"o":"m 474 318 l 62 118 l 70 181 q 72 190 76 196 q 82 202 92 207 l 330 321 q 340 326 352 330 q 364 334 377 337 q 365 340 354 344 q 344 348 334 352 l 123 466 q 116 470 112 476 q 108 482 108 487 q 108 488 109 494 q 110 500 111 510 q 112 520 114 532 q 115 544 116 556 l 478 355 z"},"l":{"x_min":0,"x_max":238,"ha":238,"o":"m 44 0 l 134 736 l 222 736 l 132 0 z"},"8":{"x_min":0,"x_max":580,"ha":580,"o":"m 259 -8 q 210 -8 169 5 q 129 18 100 41 q 72 64 56 98 q 41 131 41 172 q 41 252 84 302 q 128 353 206 374 q 157 392 133 429 q 108 466 108 514 q 108 558 126 597 q 144 635 176 663 q 208 692 252 708 q 296 724 348 724 q 394 724 430 710 q 466 698 491 675 q 516 652 530 621 q 543 590 543 556 q 543 490 508 442 q 474 395 406 372 q 464 355 496 316 q 526 278 526 220 q 526 167 506 125 q 486 83 450 53 q 414 24 366 8 q 316 -8 259 -8 z m 267 60 q 306 60 338 72 q 369 84 392 104 q 414 124 426 154 q 438 182 438 218 q 438 250 427 272 q 416 294 396 309 q 378 323 353 330 q 328 336 302 336 q 268 336 238 328 q 208 318 184 300 q 160 280 146 251 q 132 221 132 180 q 132 153 140 131 q 150 110 167 94 q 184 78 210 69 q 234 60 267 60 z m 310 406 q 350 406 378 418 q 406 432 424 452 q 442 473 450 498 q 458 524 458 550 q 458 572 451 592 q 444 611 429 626 q 414 640 392 649 q 370 658 341 658 q 305 658 277 646 q 250 635 230 616 q 212 597 202 571 q 192 545 192 516 q 192 494 198 474 q 205 454 219 439 q 234 424 256 415 q 278 406 310 406 z"},"\\":{"x_min":0,"x_max":347,"ha":347,"o":"m 54 726 l 90 726 q 106 726 117 717 q 128 708 132 694 l 312 -46 l 276 -46 q 262 -46 250 -37 q 238 -28 234 -12 z"},"e":{"x_min":0,"x_max":462,"ha":462,"o":"m 441 398 q 441 365 428 337 q 414 310 378 287 q 342 265 279 248 q 216 232 117 222 q 116 216 116 211 q 116 206 116 200 q 116 134 146 98 q 175 63 234 63 q 258 63 277 68 q 296 73 310 80 q 325 88 336 96 q 348 105 357 112 q 366 120 374 124 q 382 130 390 130 q 400 130 407 121 l 429 94 q 404 67 379 48 q 355 30 330 17 q 304 4 276 -1 q 248 -7 216 -7 q 173 -7 138 8 q 104 22 80 49 q 56 76 43 114 q 30 152 30 198 q 30 238 38 276 q 46 315 62 350 q 78 385 101 415 q 124 445 153 467 q 182 488 217 501 q 252 514 293 514 q 332 514 360 502 q 388 492 406 474 q 424 458 432 437 q 441 416 441 398 z m 288 450 q 256 450 230 436 q 204 424 183 401 q 162 378 148 347 q 134 316 126 281 q 202 290 249 303 q 296 315 320 329 q 346 344 354 360 q 362 376 362 394 q 362 404 358 413 q 354 423 345 431 q 336 439 322 444 q 308 450 288 450 z"},"b":{"x_min":0,"x_max":526,"ha":526,"o":"m 40 0 l 129 736 l 216 736 l 172 378 q 192 409 214 434 q 236 460 260 477 q 284 494 310 504 q 336 514 362 514 q 427 514 463 467 q 499 420 499 330 q 499 288 490 248 q 482 206 466 169 q 450 132 428 100 q 406 68 379 44 q 352 20 320 6 q 288 -7 252 -7 q 212 -7 179 10 q 146 27 126 58 l 119 26 q 115 13 109 6 q 102 0 88 0 z m 329 442 q 305 442 280 428 q 256 412 233 386 q 210 360 190 323 q 170 286 156 243 l 140 112 q 159 84 186 73 q 212 62 240 62 q 266 62 288 73 q 312 84 330 103 q 350 122 364 147 q 380 172 390 201 q 400 230 406 260 q 411 291 411 321 q 411 380 390 412 q 368 442 329 442 z"},"%":{"x_min":0,"x_max":726,"ha":726,"o":"m 366 572 q 366 522 351 484 q 336 446 312 419 q 288 392 258 379 q 227 365 194 365 q 166 365 143 375 q 120 386 103 405 q 86 424 77 452 q 68 480 68 514 q 68 564 81 603 q 94 642 118 668 q 141 695 172 709 q 204 723 238 723 q 266 723 290 713 q 314 702 330 683 q 347 664 356 636 q 366 608 366 572 z m 298 572 q 298 596 293 614 q 288 632 279 644 q 270 656 258 661 q 246 666 232 666 q 212 666 194 658 q 176 650 163 631 q 150 612 142 584 q 134 555 134 514 q 134 490 140 473 q 144 456 154 444 q 162 433 175 428 q 187 422 202 422 q 221 422 239 431 q 256 439 270 457 q 283 474 291 503 q 298 531 298 572 z m 614 702 q 620 707 627 711 q 634 716 646 716 l 708 716 l 138 14 q 132 8 125 4 q 118 0 108 0 l 45 0 z m 686 198 q 686 149 672 110 q 657 72 633 45 q 609 19 578 5 q 547 -8 514 -8 q 486 -8 463 2 q 440 12 423 31 q 406 50 397 78 q 388 106 388 140 q 388 190 402 229 q 415 268 438 294 q 462 322 493 336 q 524 350 559 350 q 587 350 610 339 q 634 329 650 310 q 668 290 677 262 q 686 234 686 198 z m 619 198 q 619 223 614 241 q 608 258 600 270 q 590 282 578 287 q 566 292 552 292 q 532 292 514 284 q 496 275 483 256 q 470 238 462 210 q 454 181 454 140 q 454 116 460 98 q 464 81 474 70 q 482 58 495 53 q 507 48 522 48 q 541 48 559 56 q 576 64 590 82 q 604 100 611 129 q 619 158 619 198 z"},"m":{"x_min":0,"x_max":784,"ha":784,"o":"m 36 0 l 97 507 l 142 507 q 172 507 172 477 l 164 386 q 202 450 246 482 q 291 514 340 514 q 392 514 416 479 q 441 444 441 378 q 479 448 526 481 q 574 514 626 514 q 682 514 709 478 q 737 441 737 372 q 737 361 736 348 q 735 336 734 322 l 696 0 l 608 0 l 646 322 q 649 347 649 367 q 649 404 636 422 q 624 440 594 440 q 573 440 552 429 q 530 418 510 398 q 490 377 473 346 q 456 316 442 276 l 410 0 l 322 0 l 360 322 q 362 336 362 348 q 364 360 364 370 q 364 406 352 423 q 340 440 310 440 q 286 440 264 428 q 242 416 222 393 q 202 370 186 338 q 168 305 154 264 l 123 0 z"},"#":{"x_min":0,"x_max":580,"ha":580,"o":"m 390 212 l 322 0 l 282 0 q 272 0 266 7 q 260 14 260 24 q 260 32 262 38 l 318 212 l 194 212 l 136 33 q 130 16 118 8 q 106 0 92 0 l 54 0 l 122 212 l 48 212 q 27 212 27 232 q 27 236 28 239 q 28 243 30 248 l 37 276 l 140 276 l 192 441 l 76 441 l 86 476 q 90 490 100 497 q 110 504 129 504 l 210 504 l 268 685 q 274 700 285 708 q 296 716 310 716 l 350 716 l 280 504 l 406 504 l 474 716 l 513 716 q 524 716 531 710 q 538 704 538 694 q 538 688 536 684 l 477 504 l 584 504 l 573 468 q 569 454 560 448 q 550 441 532 441 l 460 441 l 407 276 l 498 276 q 508 276 514 271 q 520 266 520 256 q 520 252 520 248 q 519 244 518 240 l 510 212 z m 210 276 l 336 276 l 389 441 l 264 441 z"},",":{"x_min":0,"x_max":212,"ha":212,"o":"m 25 62 q 25 85 41 102 q 58 118 84 118 q 100 118 111 112 q 122 107 130 97 q 138 88 142 75 q 146 62 146 47 q 146 24 140 0 q 134 -24 121 -48 q 109 -72 92 -94 q 74 -116 52 -136 l 36 -121 q 30 -115 30 -107 q 30 -101 38 -92 q 46 -82 56 -69 q 66 -56 76 -38 q 86 -21 90 0 l 84 0 q 58 0 41 17 q 25 34 25 62 z"},"n":{"x_min":0,"x_max":527,"ha":527,"o":"m 36 0 l 96 507 l 141 507 q 171 507 171 477 l 164 379 q 204 446 255 480 q 306 514 360 514 q 416 514 448 476 q 479 438 479 365 q 479 355 478 344 q 478 334 476 322 l 438 0 l 350 0 l 388 322 q 388 332 389 342 q 390 351 390 360 q 390 400 375 420 q 360 440 327 440 q 303 440 278 427 q 254 414 230 390 q 208 366 188 333 q 168 299 154 258 l 125 0 z"},"h":{"x_min":0,"x_max":531,"ha":531,"o":"m 40 0 l 129 736 l 218 736 l 176 394 q 216 454 264 484 q 312 514 363 514 q 420 514 452 476 q 482 438 482 366 q 482 356 482 345 q 482 334 480 322 l 442 0 l 353 0 l 391 322 q 392 332 393 342 q 394 351 394 360 q 394 400 378 420 q 363 440 330 440 q 308 440 284 428 q 260 416 238 394 q 215 371 196 339 q 176 308 162 268 l 129 0 z"},"z":{"x_min":0,"x_max":430,"ha":430,"o":"m 424 468 q 424 459 419 450 q 414 442 409 434 l 117 70 l 367 70 l 359 0 l 2 0 l 6 37 q 8 44 12 52 q 16 61 22 69 l 316 436 l 70 436 l 78 506 l 429 506 z"},"B":{"x_min":0,"x_max":596,"ha":596,"o":"m 48 0 l 137 716 l 349 716 q 405 716 445 705 q 486 694 512 673 q 538 652 550 623 q 562 593 562 556 q 562 524 553 496 q 544 466 526 442 q 507 418 479 398 q 452 380 414 368 q 479 354 512 317 q 544 281 544 225 q 544 176 526 134 q 508 93 475 63 q 442 33 393 16 q 345 0 284 0 z m 182 328 l 151 74 l 292 74 q 332 74 362 84 q 392 95 412 114 q 432 134 442 162 q 452 189 452 224 q 452 271 420 299 q 388 328 323 328 z m 190 394 l 306 394 q 346 394 377 404 q 407 415 427 434 q 448 454 458 480 q 468 508 468 540 q 468 592 436 617 q 406 643 340 643 l 222 643 z"},"K":{"x_min":0,"x_max":628,"ha":628,"o":"m 199 401 l 232 401 q 250 401 261 406 q 272 410 282 422 l 530 694 q 542 707 553 712 q 564 716 579 716 l 658 716 l 372 406 q 362 395 353 387 q 344 380 334 375 q 346 370 354 361 q 363 352 372 340 l 588 0 l 507 0 q 498 0 492 2 q 486 3 481 6 q 477 8 474 12 q 471 16 468 20 l 280 306 q 272 318 262 324 q 252 329 231 329 l 190 329 l 150 0 l 57 0 l 144 716 l 238 716 z"},"R":{"x_min":0,"x_max":594,"ha":594,"o":"m 187 300 l 150 0 l 57 0 l 144 716 l 333 716 q 390 716 432 704 q 474 692 501 670 q 528 648 541 616 q 554 584 554 546 q 554 502 542 464 q 528 427 504 397 q 480 368 445 347 q 410 326 367 316 q 383 305 394 286 l 548 0 l 465 0 q 440 0 430 20 l 295 278 q 288 290 280 296 q 272 300 253 300 z m 230 643 l 196 368 l 287 368 q 330 368 362 380 q 394 392 417 414 q 439 436 450 466 q 462 496 462 531 q 462 586 427 614 q 393 643 324 643 z"},"T":{"x_min":0,"x_max":544,"ha":544,"o":"m 588 716 l 578 638 l 367 638 l 289 0 l 196 0 l 274 638 l 62 638 l 71 716 z"},"P":{"x_min":0,"x_max":564,"ha":564,"o":"m 183 269 l 150 0 l 57 0 l 144 716 l 342 716 q 399 716 441 703 q 483 690 510 664 q 538 640 551 604 q 564 570 564 526 q 564 470 546 423 q 528 376 492 342 q 457 308 405 288 q 354 269 287 269 z m 229 643 l 192 343 l 296 343 q 338 343 371 356 q 404 369 426 392 q 448 416 459 448 q 470 480 470 518 q 470 547 462 570 q 454 593 436 609 q 420 626 394 634 q 368 643 333 643 z"},"|":{"x_min":0,"x_max":300,"ha":300,"o":"m 86 766 l 154 766 l 154 -172 l 86 -172 z"},"t":{"x_min":0,"x_max":344,"ha":344,"o":"m 80 96 q 80 98 80 103 q 80 108 81 117 q 82 126 84 140 q 85 155 88 178 l 120 432 l 63 432 q 56 432 52 436 q 48 440 48 448 q 48 449 48 454 q 49 458 50 464 q 50 470 51 476 q 52 482 52 487 l 130 498 l 168 654 q 170 662 176 666 q 181 671 189 671 l 236 671 l 214 496 l 347 496 l 340 432 l 206 432 l 176 183 q 173 162 172 150 q 170 138 170 130 q 169 122 169 120 q 168 116 168 115 q 168 90 180 77 q 192 65 212 65 q 226 65 236 69 q 246 72 253 77 q 260 82 265 85 q 270 89 274 89 q 278 89 280 87 q 282 85 285 80 l 304 38 q 280 16 248 4 q 217 -8 186 -8 q 137 -8 109 18 q 81 45 80 96 z"},"M":{"x_min":0,"x_max":848,"ha":848,"o":"m 410 250 q 413 240 416 230 q 418 220 421 210 q 430 230 442 250 l 724 700 q 730 712 738 714 q 745 716 758 716 l 827 716 l 739 0 l 657 0 l 722 530 q 724 540 726 551 q 728 562 730 575 l 452 126 q 439 104 416 104 l 402 104 q 380 104 371 126 l 198 576 q 198 564 198 552 q 197 541 196 531 l 131 0 l 48 0 l 137 716 l 206 716 q 218 716 225 714 q 232 712 236 700 l 410 250 z"},"g":{"x_min":0,"x_max":466,"ha":466,"o":"m 408 366 q 408 341 402 321 q 396 301 388 284 q 380 267 370 252 q 360 237 351 222 q 342 207 337 191 q 331 176 331 157 q 331 136 341 119 q 352 102 364 84 q 376 66 386 45 q 396 24 396 -6 q 396 -41 380 -73 q 364 -104 333 -129 q 302 -154 259 -168 q 215 -182 160 -182 q 117 -182 81 -173 q 46 -164 20 -148 q -5 -131 -19 -108 q -32 -84 -32 -56 q -32 -17 -12 12 q 8 40 42 58 q 76 77 118 86 q 161 94 206 94 q 224 94 241 92 q 259 91 276 88 q 272 98 269 108 q 266 118 266 130 q 266 146 271 162 q 276 179 287 200 q 268 186 244 180 q 221 172 191 172 q 162 172 137 182 q 112 192 92 210 q 74 228 62 256 q 52 284 52 321 q 52 357 65 392 q 78 426 104 454 q 129 481 166 498 q 204 514 253 514 q 308 514 348 488 l 486 488 l 482 458 q 481 450 476 443 q 472 436 462 434 l 399 424 q 404 410 406 396 q 408 382 408 366 z m 216 228 q 242 228 263 240 q 284 252 298 271 q 312 290 320 314 q 327 338 327 363 q 327 407 305 430 q 282 452 244 452 q 216 452 196 441 q 176 430 162 412 q 148 393 140 370 q 133 346 133 320 q 133 276 155 252 q 176 228 216 228 z m 316 -12 q 316 0 313 12 q 310 23 306 33 q 280 38 256 40 q 232 42 211 42 q 170 42 140 34 q 110 27 90 15 q 71 3 62 -13 q 52 -28 52 -46 q 52 -82 82 -100 q 112 -120 168 -120 q 201 -120 228 -111 q 256 -102 275 -88 q 294 -73 305 -54 q 316 -34 316 -12 z"},"j":{"x_min":0,"x_max":238,"ha":238,"o":"m 196 506 l 129 -38 q 125 -68 114 -94 q 102 -120 84 -140 q 64 -160 38 -171 q 12 -182 -22 -182 q -39 -182 -52 -180 q -64 -177 -76 -172 l -67 -124 q -64 -118 -61 -116 q -58 -114 -50 -114 q -47 -114 -43 -114 q -38 -114 -33 -114 q 2 -114 20 -96 q 37 -78 42 -38 l 108 506 z m 228 666 q 228 652 222 641 q 217 630 208 621 q 200 612 188 608 q 177 602 166 602 q 154 602 143 608 q 132 612 124 621 q 116 630 110 641 q 106 652 106 666 q 106 678 110 690 q 116 702 124 710 q 132 719 143 724 q 154 730 166 730 q 178 730 189 724 q 200 720 209 711 q 218 702 222 690 q 228 678 228 666 z"},"i":{"x_min":0,"x_max":244,"ha":244,"o":"m 196 506 l 136 0 l 48 0 l 109 506 z m 230 666 q 230 652 225 641 q 220 630 211 621 q 202 612 191 608 q 180 602 168 602 q 156 602 146 608 q 134 612 126 621 q 118 630 113 641 q 108 652 108 666 q 108 678 113 690 q 118 702 126 710 q 135 719 146 724 q 157 730 168 730 q 180 730 192 724 q 202 720 211 711 q 220 702 225 690 q 230 678 230 666 z"},"y":{"x_min":0,"x_max":477,"ha":477,"o":"m 158 -151 q 148 -172 128 -172 l 62 -172 l 172 30 l 41 506 l 114 506 q 125 506 130 501 q 136 496 138 488 l 219 169 q 222 158 223 148 q 224 138 226 127 q 230 138 234 148 q 238 159 244 170 l 404 489 q 408 497 415 502 q 422 506 430 506 l 500 506 z"},"@":{"x_min":0,"x_max":748,"ha":748,"o":"m 513 93 q 478 93 458 112 q 437 130 435 168 q 404 128 370 111 q 336 94 300 94 q 276 94 259 103 q 241 112 230 126 q 218 142 212 162 q 206 182 206 206 q 206 236 214 268 q 222 300 238 329 q 254 358 277 384 q 300 410 329 430 q 359 449 395 460 q 431 472 473 472 q 504 472 527 466 q 550 462 570 452 l 504 272 q 495 246 491 226 q 486 208 486 194 q 486 180 490 171 q 494 162 500 157 q 506 152 514 150 q 522 148 532 148 q 558 148 582 166 q 606 183 625 215 q 644 246 655 290 q 666 334 666 387 q 666 445 650 489 q 632 533 602 562 q 572 592 529 607 q 487 622 436 622 q 369 622 308 593 q 248 564 202 511 q 156 458 129 386 q 102 314 102 229 q 102 158 122 104 q 142 50 178 13 q 214 -24 263 -43 q 312 -62 372 -62 q 442 -62 496 -46 q 549 -31 587 -7 q 592 -4 596 -2 q 600 -2 604 -2 q 612 -2 616 -6 q 621 -11 623 -17 l 629 -42 q 576 -78 510 -99 q 445 -120 365 -120 q 292 -120 232 -96 q 172 -72 129 -27 q 86 18 62 81 q 38 145 38 225 q 38 288 54 347 q 68 405 95 455 q 122 506 160 547 q 197 588 242 617 q 287 646 338 662 q 389 678 444 678 q 502 678 554 659 q 606 639 644 602 q 683 564 706 510 q 728 456 728 387 q 728 324 711 270 q 694 216 664 177 q 634 138 596 115 q 556 93 513 93 z m 325 152 q 338 152 354 156 q 368 162 383 174 q 398 187 412 209 q 426 230 438 264 l 491 412 q 474 416 453 416 q 416 416 384 399 q 352 381 327 352 q 303 324 289 288 q 274 252 274 216 q 274 188 287 170 q 300 152 325 152 z"},".":{"x_min":0,"x_max":212,"ha":212,"o":"m 22 55 q 22 68 27 80 q 32 91 40 100 q 49 108 60 113 q 72 118 85 118 q 98 118 109 113 q 120 108 129 100 q 138 91 142 80 q 148 68 148 55 q 148 42 142 30 q 138 19 129 10 q 120 2 109 -3 q 98 -8 85 -8 q 72 -8 60 -3 q 49 2 40 10 q 32 19 27 30 q 22 42 22 55 z"},"p":{"x_min":0,"x_max":519,"ha":519,"o":"m 14 -172 l 97 507 l 142 507 q 172 507 172 477 l 163 369 q 182 402 204 429 q 227 456 252 474 q 276 494 304 504 q 330 514 358 514 q 423 514 459 467 q 495 420 495 330 q 495 288 486 248 q 478 206 462 169 q 446 132 424 100 q 402 68 375 44 q 348 20 316 6 q 284 -7 248 -7 q 211 -7 180 8 q 149 22 128 50 l 101 -172 z m 325 442 q 301 442 276 428 q 252 412 228 386 q 206 358 186 322 q 166 284 152 241 l 136 112 q 154 84 181 73 q 208 62 236 62 q 262 62 284 73 q 308 84 326 103 q 346 122 360 147 q 376 172 386 201 q 396 230 402 260 q 407 291 407 321 q 407 380 386 412 q 364 442 325 442 z"},"X":{"x_min":0,"x_max":596,"ha":596,"o":"m 250 382 l 82 716 l 166 716 q 176 716 181 713 q 186 710 189 702 l 317 432 q 322 442 328 451 l 510 702 q 516 709 521 713 q 526 716 534 716 l 630 716 l 380 386 l 568 0 l 484 0 q 474 0 469 6 q 463 12 460 18 l 314 330 q 310 322 305 316 l 90 18 q 76 0 58 0 l -35 0 z"},"*":{"x_min":0,"x_max":368,"ha":368,"o":"m 180 432 l 193 532 q 194 540 196 549 q 198 557 202 564 q 196 558 190 553 q 184 548 175 544 l 90 494 l 74 530 l 158 580 q 176 591 194 592 q 176 594 162 604 l 89 656 l 114 692 l 187 642 q 195 636 201 630 q 206 625 210 617 q 206 629 206 640 q 206 644 207 646 q 207 650 208 653 l 220 752 l 262 752 l 250 654 q 249 644 246 636 q 244 628 240 619 q 245 626 252 631 q 260 636 268 642 l 352 692 l 368 655 l 284 604 q 266 594 250 592 q 259 592 266 589 q 274 586 281 580 l 354 530 l 328 494 l 256 544 q 248 548 242 554 q 236 558 232 566 q 236 556 236 544 q 236 542 236 538 q 236 536 235 532 l 223 432 z"},"Y":{"x_min":0,"x_max":582,"ha":582,"o":"m 343 286 l 308 0 l 214 0 l 250 286 l 60 716 l 144 716 q 156 716 162 710 q 169 704 173 694 l 292 408 q 297 393 300 380 q 304 367 306 354 q 312 367 320 380 q 327 393 336 408 l 526 694 q 532 702 540 710 q 548 716 560 716 l 638 716 z"},"c":{"x_min":0,"x_max":434,"ha":434,"o":"m 410 91 q 384 62 361 44 q 338 24 314 13 q 290 2 265 -2 q 240 -7 211 -7 q 167 -7 133 8 q 100 23 77 50 q 54 78 42 116 q 30 154 30 200 q 30 262 50 318 q 69 374 104 418 q 138 462 186 488 q 233 514 290 514 q 340 514 374 496 q 408 478 434 444 l 406 410 q 402 406 398 404 q 394 402 388 402 q 381 402 374 408 q 368 414 357 422 q 346 430 330 436 q 314 442 288 442 q 254 442 223 423 q 192 404 169 372 q 146 340 133 295 q 120 250 120 200 q 120 168 126 143 q 134 118 148 100 q 162 82 182 73 q 202 63 229 63 q 252 63 269 68 q 286 72 300 80 q 314 86 324 95 q 334 103 342 110 q 350 117 357 122 q 364 126 371 126 q 381 126 388 118 l 410 91 z"},"!":{"x_min":0,"x_max":318,"ha":318,"o":"m 259 716 l 224 430 q 221 407 218 386 q 214 364 210 343 q 206 322 201 298 q 196 276 190 250 l 132 250 q 132 276 133 298 q 134 322 135 343 q 136 364 138 386 q 140 407 142 430 l 178 716 z m 80 55 q 80 68 84 80 q 89 91 97 100 q 106 108 117 113 q 128 118 142 118 q 154 118 166 113 q 178 108 186 100 q 194 91 199 80 q 204 68 204 55 q 204 42 199 30 q 194 19 186 10 q 178 2 166 -3 q 154 -8 142 -8 q 128 -8 117 -3 q 106 2 97 10 q 89 19 84 30 q 80 42 80 55 z"},"/":{"x_min":0,"x_max":348,"ha":348,"o":"m 46 -12 q 38 -28 24 -37 q 10 -46 -4 -46 l -40 -46 l 322 694 q 328 709 342 717 q 354 726 370 726 l 407 726 z"},"[":{"x_min":0,"x_max":276,"ha":276,"o":"m 16 -144 l 128 766 l 300 766 l 296 732 q 294 722 287 716 q 280 710 269 710 l 194 710 l 95 -86 l 172 -86 q 181 -86 187 -92 q 192 -98 192 -106 q 192 -106 192 -110 q 192 -112 192 -117 q 191 -121 190 -126 q 190 -130 189 -135 l 188 -144 z"},"6":{"x_min":0,"x_max":580,"ha":580,"o":"m 348 438 q 388 438 422 426 q 456 413 482 389 q 507 365 522 330 q 536 296 536 252 q 536 197 515 150 q 494 102 457 67 q 420 32 370 12 q 320 -8 260 -8 q 212 -8 173 7 q 134 22 108 50 q 80 77 66 116 q 52 154 52 202 q 52 232 59 262 q 66 292 80 322 q 94 352 116 384 q 138 415 168 450 l 382 695 q 389 704 402 710 q 414 716 430 716 l 506 716 l 260 447 q 237 422 218 400 q 246 418 279 428 q 312 438 348 438 z m 134 198 q 134 169 142 144 q 152 120 168 102 q 186 84 210 74 q 236 64 268 64 q 307 64 340 77 q 374 90 398 114 q 422 137 436 169 q 449 201 449 239 q 449 270 439 294 q 430 319 412 336 q 394 354 369 363 q 344 372 312 372 q 273 372 240 358 q 207 344 184 320 q 160 296 147 265 q 134 234 134 198 z"},"r":{"x_min":0,"x_max":352,"ha":352,"o":"m 36 0 l 97 507 l 142 507 q 156 507 164 500 q 172 494 172 480 q 172 478 171 475 q 171 471 171 467 q 170 463 170 460 q 170 457 170 456 l 163 364 q 196 434 236 472 q 276 510 320 510 q 342 510 362 502 l 346 416 q 323 426 301 426 q 252 426 214 378 q 176 331 151 235 l 123 0 z"},"2":{"x_min":0,"x_max":580,"ha":580,"o":"m 358 724 q 399 724 434 712 q 470 700 495 678 q 520 655 535 623 q 549 590 549 550 q 549 504 535 466 q 520 429 496 396 q 472 362 439 330 q 406 299 369 266 l 154 70 q 174 75 194 78 q 215 81 234 81 l 479 81 q 492 81 499 74 q 506 67 506 56 q 506 50 505 42 q 504 34 503 26 l 500 0 l 24 0 l 27 30 q 28 38 33 48 q 38 58 47 66 l 306 298 q 342 330 371 360 q 400 389 419 418 q 439 446 449 476 q 460 506 460 541 q 460 568 451 588 q 442 609 426 622 q 411 636 390 643 q 368 650 344 650 q 288 650 248 621 q 209 592 190 540 q 185 526 176 520 q 168 514 155 514 q 152 514 150 514 q 146 514 144 515 l 100 522 q 112 572 137 609 q 162 646 196 672 q 229 698 270 710 q 312 724 358 724 z"},"{":{"x_min":0,"x_max":276,"ha":276,"o":"m 79 226 q 79 252 65 269 q 51 286 24 286 l 31 338 q 68 338 86 367 q 104 397 104 459 q 104 470 104 483 q 103 496 102 510 q 102 524 101 537 q 100 550 100 562 q 100 610 111 648 q 122 686 145 712 q 167 738 200 752 q 233 766 276 766 l 300 766 l 296 728 q 295 718 287 714 q 280 710 274 710 l 266 710 q 246 710 230 702 q 213 694 201 677 q 190 660 183 632 q 176 604 176 564 q 176 554 176 539 q 176 524 177 509 q 177 493 177 478 q 177 463 177 454 q 177 415 168 389 q 160 364 147 347 q 134 331 120 323 q 105 314 92 311 q 119 302 135 280 q 151 257 151 226 q 151 196 144 167 q 136 138 127 110 q 118 81 111 52 q 104 22 104 -9 q 104 -44 120 -65 q 137 -86 168 -86 l 177 -86 q 182 -86 188 -90 q 194 -94 194 -102 q 194 -104 193 -108 q 192 -111 192 -115 q 192 -118 192 -122 q 191 -124 191 -125 l 189 -144 l 164 -144 q 130 -144 104 -134 q 78 -124 62 -106 q 45 -88 36 -64 q 28 -39 28 -10 q 28 23 36 53 q 44 83 54 112 q 63 140 71 169 q 79 197 79 226 z"},"9":{"x_min":0,"x_max":580,"ha":580,"o":"m 282 294 q 245 294 212 306 q 180 318 156 342 q 132 364 118 398 q 104 431 104 473 q 104 526 125 571 q 146 617 181 651 q 217 684 266 704 q 314 724 370 724 q 417 724 454 709 q 492 694 518 668 q 544 641 558 604 q 572 567 572 523 q 572 487 564 456 q 556 424 542 395 q 527 366 506 336 q 485 306 458 274 l 252 20 q 244 12 232 6 q 220 0 205 0 l 126 0 l 378 286 q 392 300 403 314 q 414 328 424 340 q 394 318 358 306 q 322 294 282 294 z m 490 524 q 490 552 480 576 q 471 600 454 617 q 437 634 413 643 q 390 652 360 652 q 324 652 293 640 q 262 628 240 605 q 218 583 205 552 q 192 522 192 484 q 192 426 225 394 q 258 361 318 361 q 358 361 390 374 q 421 388 443 410 q 466 432 478 462 q 490 492 490 524 z"}," ":{"x_min":0,"x_max":193,"ha":193,"o":""},"I":{"x_min":0,"x_max":283,"ha":283,"o":"m 158 0 l 64 0 l 152 716 l 246 716 z"},"H":{"x_min":0,"x_max":696,"ha":696,"o":"m 586 0 l 492 0 l 532 327 l 183 327 l 143 0 l 48 0 l 137 716 l 231 716 l 192 395 l 541 395 l 580 716 l 674 716 z"},"4":{"x_min":0,"x_max":580,"ha":580,"o":"m 454 257 l 563 257 l 556 208 q 555 200 550 195 q 544 190 534 190 l 446 190 l 423 0 l 345 0 l 368 190 l 54 190 q 44 190 35 195 q 26 200 26 209 l 22 252 l 428 716 l 511 716 z m 414 558 q 415 570 418 584 q 421 598 425 612 l 118 257 l 376 257 z"},"~":{"x_min":0,"x_max":580,"ha":580,"o":"m 350 306 q 382 306 401 328 q 419 349 420 384 l 492 384 q 492 350 482 322 q 473 294 456 274 q 438 254 413 244 q 388 232 356 232 q 330 232 304 240 q 278 248 255 258 q 231 268 210 276 q 188 284 170 284 q 138 284 119 264 q 101 242 100 207 l 28 207 q 28 240 38 268 q 47 296 64 316 q 82 336 107 348 q 132 359 164 359 q 190 359 216 351 q 242 342 265 333 q 289 323 310 315 q 332 306 350 306 z"},"D":{"x_min":0,"x_max":692,"ha":692,"o":"m 670 408 q 670 317 642 242 q 614 166 564 113 q 514 59 446 30 q 377 0 296 0 l 48 0 l 137 716 l 384 716 q 450 716 503 694 q 556 672 594 631 q 630 590 650 533 q 670 476 670 408 z m 574 406 q 574 460 561 504 q 547 548 521 578 q 496 608 458 624 q 422 640 375 640 l 222 640 l 152 76 l 305 76 q 365 76 414 98 q 464 121 500 164 q 535 206 555 268 q 574 329 574 406 z"},"^":{"x_min":0,"x_max":580,"ha":580,"o":"m 287 716 l 344 716 l 524 394 l 458 394 q 450 394 444 398 q 438 404 434 410 l 336 586 q 330 598 325 609 q 320 620 316 630 q 310 608 298 586 l 202 410 q 198 404 192 398 q 186 394 176 394 l 108 394 z"},"0":{"x_min":0,"x_max":580,"ha":580,"o":"m 348 724 q 395 724 435 705 q 475 687 504 651 q 532 614 549 560 q 565 505 565 432 q 565 320 540 238 q 516 155 474 100 q 432 46 376 19 q 320 -8 258 -8 q 210 -8 170 11 q 130 29 101 65 q 72 102 56 156 q 40 211 40 284 q 40 396 64 478 q 88 561 130 616 q 172 670 228 697 q 284 724 348 724 z m 268 65 q 310 65 348 87 q 386 110 414 154 q 442 200 459 268 q 476 337 476 430 q 476 490 464 532 q 453 574 434 601 q 415 628 390 640 q 364 652 336 652 q 294 652 257 629 q 219 607 191 562 q 162 516 146 448 q 130 379 130 286 q 130 226 141 184 q 152 142 171 115 q 190 89 215 77 q 240 65 268 65 z"},"F":{"x_min":0,"x_max":520,"ha":520,"o":"m 535 640 l 222 640 l 190 385 l 458 385 l 448 309 l 181 309 l 143 0 l 48 0 l 137 716 l 544 716 z"},"`":{"x_min":0,"x_max":284,"ha":284,"o":"m 120 724 q 136 724 142 718 q 150 714 154 702 l 208 582 l 158 582 q 148 582 142 584 q 136 588 131 595 l 38 724 z"},"k":{"x_min":0,"x_max":480,"ha":480,"o":"m 218 736 l 164 303 l 180 303 q 190 303 196 306 q 203 308 211 317 l 378 488 q 386 496 394 502 q 402 506 414 506 l 492 506 l 296 308 q 289 300 282 293 q 274 286 266 282 q 274 276 280 268 q 285 260 290 250 l 442 0 l 366 0 q 355 0 348 4 q 342 8 336 18 l 207 225 q 200 235 194 238 q 188 242 174 242 l 157 242 l 128 0 l 40 0 l 130 736 z"},"u":{"x_min":0,"x_max":526,"ha":526,"o":"m 178 506 l 140 184 q 138 174 138 166 q 137 156 137 148 q 137 107 152 87 q 168 67 200 67 q 224 67 248 80 q 272 92 295 115 q 318 138 337 170 q 356 203 371 243 l 402 506 l 491 506 l 430 0 l 386 0 q 370 0 362 7 q 354 14 354 28 q 354 29 354 38 q 354 46 355 56 q 356 66 357 74 q 358 83 358 84 l 361 124 q 320 60 270 26 q 220 -7 168 -7 q 111 -7 80 32 q 48 70 48 142 q 48 152 49 162 q 50 173 51 184 l 89 506 z"},"]":{"x_min":0,"x_max":276,"ha":276,"o":"m 104 766 l 276 766 l 164 -144 l -8 -144 l -3 -110 q -2 -100 5 -93 q 12 -86 24 -86 l 100 -86 l 198 710 l 122 710 q 112 710 106 715 q 100 721 100 730 l 103 754 z"},"U":{"x_min":0,"x_max":672,"ha":672,"o":"m 315 74 q 355 74 389 89 q 422 104 448 132 q 473 159 489 197 q 506 235 511 280 l 564 716 l 658 716 l 605 280 q 598 218 573 166 q 548 113 509 74 q 470 36 418 14 q 366 -8 305 -8 q 250 -8 206 10 q 164 28 134 60 q 104 92 88 136 q 73 181 73 234 q 73 256 76 280 l 129 716 l 222 716 l 169 280 q 168 270 167 261 q 166 252 166 242 q 166 205 176 174 q 186 143 205 120 q 224 98 251 86 q 279 74 315 74 z"},"o":{"x_min":0,"x_max":504,"ha":504,"o":"m 224 62 q 261 62 291 82 q 321 102 342 136 q 363 169 374 212 q 386 256 386 304 q 386 374 358 409 q 331 444 279 444 q 242 444 212 425 q 182 405 162 372 q 140 338 129 295 q 118 252 118 204 q 118 134 145 98 q 172 62 224 62 z m 216 -7 q 175 -7 140 7 q 106 22 81 48 q 56 76 42 114 q 28 154 28 204 q 28 268 48 324 q 68 380 103 423 q 138 466 185 490 q 232 514 287 514 q 328 514 363 500 q 398 486 422 459 q 448 432 462 393 q 476 354 476 304 q 476 240 456 184 q 436 128 401 85 q 366 42 318 18 q 271 -7 216 -7 z"},"N":{"x_min":0,"x_max":696,"ha":696,"o":"m 185 716 q 198 716 203 714 q 209 710 215 700 l 524 153 q 525 164 526 175 q 527 185 528 194 l 592 716 l 674 716 l 586 0 l 540 0 q 528 0 520 4 q 513 8 508 18 l 199 566 q 199 563 199 558 q 198 554 198 549 q 198 544 197 539 q 196 534 196 530 l 131 0 l 48 0 l 137 716 l 185 716 z"},"+":{"x_min":0,"x_max":580,"ha":580,"o":"m 366 582 l 340 368 l 544 368 l 536 303 l 332 303 l 305 88 l 234 88 l 261 303 l 58 303 l 66 368 l 269 368 l 296 582 z"},"G":{"x_min":0,"x_max":674,"ha":674,"o":"m 352 68 q 378 68 400 70 q 423 73 443 78 q 462 84 481 92 q 499 100 517 110 l 536 272 l 437 272 q 428 272 424 276 q 419 280 419 288 q 419 288 419 290 q 420 292 420 296 q 420 298 420 301 q 420 304 420 304 l 425 343 l 630 343 l 596 70 q 570 50 541 36 q 512 21 480 11 q 448 2 412 -3 q 377 -8 336 -8 q 271 -8 218 15 q 166 38 128 80 q 90 122 70 180 q 50 238 50 307 q 50 400 79 476 q 108 553 158 608 q 209 664 279 694 q 348 724 431 724 q 472 724 506 718 q 540 710 568 698 q 596 686 618 668 q 640 652 658 632 l 628 592 q 624 586 618 582 q 613 579 606 579 q 598 579 590 584 q 578 590 565 601 q 552 611 533 620 q 514 630 488 636 q 462 643 424 643 q 362 643 311 620 q 260 596 223 552 q 186 509 166 448 q 146 386 146 310 q 146 254 160 209 q 175 164 202 132 q 229 101 267 84 q 305 68 352 68 z"},"q":{"x_min":0,"x_max":506,"ha":506,"o":"m 387 -172 l 331 -172 q 315 -172 308 -162 q 302 -153 302 -140 q 302 -139 302 -135 q 303 -131 304 -127 q 304 -122 304 -119 q 305 -116 305 -114 l 334 121 q 317 92 297 68 q 277 44 254 28 q 232 11 208 2 q 183 -7 157 -7 q 127 -7 102 5 q 78 16 61 39 q 44 62 34 95 q 24 128 24 172 q 24 216 36 259 q 47 302 68 340 q 88 378 118 410 q 146 442 182 465 q 218 488 259 501 q 300 514 345 514 q 378 514 408 508 q 439 503 469 490 z m 190 67 q 214 67 238 82 q 261 97 282 124 q 303 150 321 187 q 339 224 353 267 l 376 444 q 365 447 354 448 q 344 448 333 448 q 303 448 275 439 q 247 429 222 412 q 198 394 178 370 q 158 346 144 316 q 130 288 122 255 q 114 222 114 188 q 114 67 190 67 z"},"d":{"x_min":0,"x_max":527,"ha":527,"o":"m 378 0 q 361 0 355 9 q 348 18 348 31 l 358 136 q 339 104 316 78 q 294 51 269 32 q 244 14 218 3 q 191 -7 164 -7 q 98 -7 63 40 q 27 88 27 178 q 27 218 36 260 q 44 300 60 338 q 76 376 98 408 q 120 440 147 464 q 174 487 206 500 q 238 514 274 514 q 310 514 341 500 q 372 485 394 458 l 428 736 l 516 736 l 424 0 z m 197 64 q 221 64 245 79 q 270 94 292 120 q 315 146 335 183 q 354 219 369 262 l 386 396 q 366 422 340 434 q 314 444 286 444 q 247 444 215 421 q 184 398 161 360 q 139 323 127 277 q 115 231 115 186 q 115 127 136 96 q 158 64 197 64 z"},"1":{"x_min":0,"x_max":580,"ha":580,"o":"m 122 66 l 277 66 l 338 568 l 348 607 l 201 492 q 192 486 182 486 q 174 486 168 489 q 162 492 160 496 l 138 534 l 373 718 l 443 718 l 363 66 l 505 66 l 497 0 l 114 0 z"},"5":{"x_min":0,"x_max":580,"ha":580,"o":"m 542 678 q 540 660 527 649 q 514 637 486 637 l 259 637 l 202 444 q 257 456 303 456 q 356 456 395 442 q 434 428 460 403 q 486 378 500 344 q 512 310 512 269 q 512 206 489 155 q 466 104 426 68 q 387 32 334 12 q 282 -8 223 -8 q 192 -8 164 -2 q 136 4 112 14 q 88 24 68 38 q 49 52 34 66 l 64 104 q 75 116 89 116 q 98 116 110 108 q 122 100 139 91 q 156 82 179 74 q 203 66 236 66 q 278 66 313 80 q 348 94 372 119 q 398 144 411 180 q 425 215 425 258 q 425 286 416 310 q 407 333 389 350 q 371 366 344 376 q 316 384 278 384 q 254 384 225 380 q 196 376 162 367 l 110 382 l 209 716 l 547 716 z"}}}
